<svg xmlns="http://www.w3.org/2000/svg" width="29.883" height="34" viewBox="0 0 29.883 34"><defs><style>.a{fill:#e6f7ff;}.b{fill:#cef;}.c{fill:#ffe666;}.d{fill:#fabe2c;}.e{fill:#ff9100;}</style></defs><g transform="translate(-31)"><path class="a" d="M195.4,407.992a6.067,6.067,0,0,1,.04,1,3.985,3.985,0,1,0,7.969.06,6.5,6.5,0,0,1,.04-1.062L199.423,406Z" transform="translate(-153.482 -379.039)"/><path class="b" d="M259.984,409.055a6.506,6.506,0,0,1,.04-1.062L256,406v7.039A4,4,0,0,0,259.984,409.055Z" transform="translate(-210.059 -379.039)"/><g transform="translate(31)"><g transform="translate(5.97 6.06)"><path class="c" d="M137.027,105.605a14.942,14.942,0,0,0-3.128,8.547h-8.048a16.116,16.116,0,0,0-3.267-8.746,8.954,8.954,0,0,1-1.574-6.614,8.628,8.628,0,0,1,8.865-7.533c4.437.016,8.869,3.016,8.964,8.76a8.947,8.947,0,0,1-1.812,5.587Z" transform="translate(-120.904 -91.259)"/></g><g transform="translate(13.945)"><path class="c" d="M242,4.051a1,1,0,0,1-1-1V1a1,1,0,0,1,1.992,0V3.055A1,1,0,0,1,242,4.051Z" transform="translate(-241)"/></g><g transform="translate(24.297 7.038)"><path class="d" d="M397.021,108.475a1,1,0,0,1,.364-1.361l1.726-1a1,1,0,0,1,1,1.726l-1.726,1A1,1,0,0,1,397.021,108.475Z" transform="translate(-396.886 -105.984)"/></g><g transform="translate(1.867 19.988)"><path class="c" d="M59.257,303.49a1,1,0,0,1,.364-1.361l1.726-1a1,1,0,0,1,1,1.726l-1.726,1A1,1,0,0,1,59.257,303.49Z" transform="translate(-59.122 -301)"/></g><g transform="translate(19.922 1.936)"><path class="d" d="M331.5,32.738a1,1,0,0,1-.364-1.361l1-1.725a1,1,0,1,1,1.724,1l-1,1.725A1,1,0,0,1,331.5,32.738Z" transform="translate(-330.997 -29.155)"/></g><g transform="translate(6.972 1.935)"><path class="c" d="M137.128,32.352l-1-1.725a1,1,0,1,1,1.724-1l1,1.725a1,1,0,1,1-1.724,1Z" transform="translate(-135.997 -29.132)"/></g><g transform="translate(24.297 19.99)"><path class="d" d="M399.109,303.876l-1.726-1a1,1,0,0,1,1-1.726l1.726,1a1,1,0,0,1-1,1.726Z" transform="translate(-396.885 -301.022)"/></g><g transform="translate(1.867 7.04)"><path class="c" d="M61.346,108.861l-1.726-1a1,1,0,0,1,1-1.726l1.726,1a1,1,0,0,1-1,1.726Z" transform="translate(-59.122 -106.006)"/></g><g transform="translate(25.899 14.012)"><path class="d" d="M423.988,212.992H422A1,1,0,1,1,422,211h1.992a1,1,0,0,1,0,1.992Z" transform="translate(-421 -211)"/></g><g transform="translate(0 14.012)"><path class="c" d="M33.988,212.992H32A1,1,0,1,1,32,211h1.992a1,1,0,1,1,0,1.992Z" transform="translate(-31 -211)"/></g></g><g transform="translate(42.953)"><path class="d" d="M257,3.055V1a1,1,0,0,0-1-1V4.051A1,1,0,0,0,257,3.055Z" transform="translate(-253.012)"/><path class="d" d="M263.152,105.606a14.942,14.942,0,0,0-3.128,8.547H256V91.26c4.437.016,8.869,3.016,8.964,8.76a8.947,8.947,0,0,1-1.812,5.587Z" transform="translate(-253.012 -85.2)"/><path class="d" d="M216.685,211.292a1,1,0,0,0-1.409,0l-1.288,1.288-1.288-1.288a1,1,0,0,0-1.409,1.409l1.7,1.7v3.572a1,1,0,0,0,1.992,0V214.4l1.7-1.7A1,1,0,0,0,216.685,211.292Z" transform="translate(-211 -196.988)"/></g><path class="e" d="M257,217.973V214.4l1.7-1.7a1,1,0,1,0-1.409-1.409L256,212.58v6.389A1,1,0,0,0,257,217.973Z" transform="translate(-210.059 -196.989)"/></g></svg>