<svg xmlns="http://www.w3.org/2000/svg" width="25" height="32.861" viewBox="0 0 25 32.861"><defs><style>.a{fill:#fff;}.b{fill:#f2f2f2;}.c{fill:#a2a2a2;}.d{fill:#b4b4b4;}</style></defs><path class="a" d="M24.037,5.776H19.224V.963A.953.953,0,0,0,18.261,0H2.888A2.884,2.884,0,0,0,0,2.888V29.972a2.884,2.884,0,0,0,2.888,2.888H22.112A2.884,2.884,0,0,0,25,29.972V6.739A.953.953,0,0,0,24.037,5.776Z"/><path class="b" d="M207.04,6.739V29.972a2.884,2.884,0,0,1-2.888,2.888h-9.627V0H200.3a.953.953,0,0,1,.963.963V5.776h4.814A.953.953,0,0,1,207.04,6.739Z" transform="translate(-182.04)"/><path class="a" d="M277.227,7.7h-6.739a.962.962,0,0,1-.963-.963V0h2.1a2.89,2.89,0,0,1,2.031.841l2.732,2.733a2.9,2.9,0,0,1,.841,2.029Z" transform="translate(-252.227)"/><g transform="translate(3.861 9.627)"><path class="c" d="M74.553,151.925H61.105a.963.963,0,0,1,0-1.925H74.553A.963.963,0,0,1,74.553,151.925Z" transform="translate(-60.152 -150)"/><path class="c" d="M70.7,211.925h-9.6a.963.963,0,0,1,0-1.925h9.6A.963.963,0,0,1,70.7,211.925Z" transform="translate(-60.152 -206.149)"/><path class="c" d="M70.7,271.925h-9.6a.963.963,0,0,1,0-1.925h9.6A.963.963,0,0,1,70.7,271.925Z" transform="translate(-60.152 -262.298)"/><path class="c" d="M70.7,331.925h-9.6a.963.963,0,0,1,0-1.925h9.6A.963.963,0,0,1,70.7,331.925Z" transform="translate(-60.152 -318.447)"/><path class="c" d="M186.406,423.925H180.63a.963.963,0,0,1,0-1.925h5.776A.963.963,0,0,1,186.406,423.925Z" transform="translate(-172.006 -404.543)"/></g><g transform="translate(12.485 9.627)"><path class="d" d="M196.45,331.925h-1.925V330h1.925A.963.963,0,0,1,196.45,331.925Z" transform="translate(-194.525 -318.447)"/><path class="d" d="M196.45,271.925h-1.925V270h1.925A.963.963,0,0,1,196.45,271.925Z" transform="translate(-194.525 -262.298)"/><path class="d" d="M196.45,211.925h-1.925V210h1.925A.963.963,0,0,1,196.45,211.925Z" transform="translate(-194.525 -206.149)"/><path class="d" d="M200.3,423.925h-5.776V422H200.3A.963.963,0,0,1,200.3,423.925Z" transform="translate(-194.525 -404.543)"/><path class="d" d="M200.3,151.925h-5.776V150H200.3A.963.963,0,0,1,200.3,151.925Z" transform="translate(-194.525 -150)"/></g></svg>