<svg xmlns="http://www.w3.org/2000/svg" width="93" height="93" viewBox="0 0 93 93"><defs><style>.a{fill:#ff9e22;}.b{fill:#384949;}.c{fill:#151f1f;}.d{fill:#a44e3f;}.e{fill:#ff4c5b;}.f{fill:#d90048;}.g{fill:#87363e;}.h{fill:#ca5742;}.i{fill:#eef8ff;}.j{fill:#d9e9fa;}</style></defs><g transform="translate(-12272.855 -552.163)"><g transform="translate(12272.855 552.163)"><g transform="translate(0 0)"><circle class="a" cx="46.5" cy="46.5" r="46.5"/></g></g><g transform="translate(12289.795 568.5)"><g transform="translate(21.236 1.762)"><path class="b" d="M187.237,29.157h-3.525V23.841L187.237,15Z" transform="translate(-183.712 -15)"/></g><path class="c" d="M198.712,29.157h1.762V15l-1.762,4.421Z" transform="translate(-175.714 -13.238)"/><path class="d" d="M39.8,237.408l-6.2-12.526a1.762,1.762,0,0,0-2.344-.806l-5.285,2.543-5.294-2.647a1.762,1.762,0,0,0-2.364.788L3.149,255.1a1.762,1.762,0,0,0,1.576,2.55H29.5a1.762,1.762,0,0,0,1.581-.983l8.724-17.7a1.762,1.762,0,0,0,0-1.561Z" transform="translate(-2.963 -197.494)"/><g transform="translate(21.236)"><path class="e" d="M196.092,10.6h-12.38V1.762A1.762,1.762,0,0,1,185.474,0H196.05a1.8,1.8,0,0,1,1.514.792,1.763,1.763,0,0,1-.225,2.217L195.046,5.3l2.263,2.263a1.8,1.8,0,0,1,.511,1.63A1.764,1.764,0,0,1,196.092,10.6Z" transform="translate(-183.712)"/></g><path class="f" d="M209.33,10.6A1.763,1.763,0,0,0,211.057,9.2a1.8,1.8,0,0,0-.511-1.63L208.283,5.3l2.293-2.293A1.764,1.764,0,0,0,210.8.792,1.8,1.8,0,0,0,209.288,0H198.712V10.6Z" transform="translate(-175.714 0)"/><path class="g" d="M206.354,225.748a1.763,1.763,0,0,0-2.344-.806l-5.285,2.543-.015-.007v31.036h.7l13.148-18.679a1.762,1.762,0,0,0,0-1.561Z" transform="translate(-175.713 -198.359)"/><path class="h" d="M234.984,320.371l-10.793-21.585a1.762,1.762,0,0,0-2.341-.8l-4.374,2.106-4.311-2.157a1.762,1.762,0,0,0-1.346-.1,2.355,2.355,0,0,0-1.123,1.092l-11.987,23.99h34.7a1.762,1.762,0,0,0,1.576-2.55Z" transform="translate(-175.712 -262.767)"/><path class="d" d="M365.262,299.585a1.911,1.911,0,0,0-2.414-.945l-4.37,2.1v22.831h15.927a1.762,1.762,0,0,0,1.576-2.55Z" transform="translate(-316.71 -263.421)"/><path class="i" d="M314.232,222.115l-5.134-10.27a1.762,1.762,0,0,0-3.153,0l-5.208,10.415,5.739,4.5a1.6,1.6,0,0,0,.908.381q.059,0,.119,0h.008a1.611,1.611,0,0,0,1-.375Z" transform="translate(-265.753 -186.096)"/><path class="j" d="M359.471,226.772l5.791-4.511-5.207-10.415a1.762,1.762,0,0,0-1.576-.974v16.275A1.615,1.615,0,0,0,359.471,226.772Z" transform="translate(-316.71 -186.096)"/><path class="i" d="M148.942,133.731l-6.065-12.254a1.757,1.757,0,0,0-1.574-.977h0a1.762,1.762,0,0,0-1.576.974l-6.067,12.135,6.63,5.22a1.636,1.636,0,0,0,.893.36q.06,0,.121,0h.008a1.65,1.65,0,0,0,.991-.355Z" transform="translate(-118.301 -106.343)"/><path class="j" d="M198.72,139.194a1.65,1.65,0,0,0,.991-.355l6.644-5.108-6.065-12.254a1.757,1.757,0,0,0-1.574-.977h0v18.694Z" transform="translate(-175.714 -106.343)"/></g></g></svg>