<svg xmlns="http://www.w3.org/2000/svg" width="93" height="93" viewBox="0 0 93 93"><defs><style>.a{fill:#ff9e22;}.b{fill:#eef4ff;}.c{fill:#d6e9f8;}.d{fill:#804111;}.e{fill:#62320d;}.f{fill:#464646;}.g{fill:#2d2d2d;}</style></defs><g transform="translate(0 0.483)"><circle class="a" cx="46.5" cy="46.5" r="46.5" transform="translate(0 -0.483)"/><path class="b" d="M135.942,169.9s-15.4,18.988-34.4,18.988-34.4-18.988-34.4-18.988,15.4-18.988,34.4-18.988S135.942,169.9,135.942,169.9Z" transform="translate(-55.006 -123.645)"/><path class="c" d="M291.926,169.9s-15.4,18.989-34.4,18.989V150.915C276.524,150.915,291.926,169.9,291.926,169.9Z" transform="translate(-210.99 -123.645)"/><g transform="translate(28.687 28.41)"><circle class="d" cx="17.847" cy="17.847" r="17.847" transform="translate(0 0)"/><path class="e" d="M275.372,175.07a17.847,17.847,0,0,1-17.847,17.847V157.223A17.847,17.847,0,0,1,275.372,175.07Z" transform="translate(-239.678 -157.223)"/><path class="f" d="M220.213,205.109a11.224,11.224,0,0,1-21.9,3.473l-.03-6.853a11.224,11.224,0,0,1,21.926,3.38Z" transform="translate(-191.144 -187.262)"/><path class="b" d="M195.939,237.287a11.249,11.249,0,0,0,.031,6.853l6.837-3.418Z" transform="translate(-188.795 -222.82)"/><path class="g" d="M268.747,205.109a11.222,11.222,0,0,0-11.222-11.222v22.444A11.222,11.222,0,0,0,268.747,205.109Z" transform="translate(-239.678 -187.262)"/></g></g></svg>